<?xml version="1.0" encoding="utf-8"?>
<!-- Generator: Adobe Illustrator 23.0.0, SVG Export Plug-In . SVG Version: 6.00 Build 0)  -->
<svg version="1.1" id="Calque_1" xmlns="http://www.w3.org/2000/svg" xmlns:xlink="http://www.w3.org/1999/xlink" x="0px" y="0px"
	 viewBox="0 0 93.8 60.1" style="enable-background:new 0 0 93.8 60.1;" xml:space="preserve">
<style type="text/css">
	.st0{fill-rule:evenodd;clip-rule:evenodd;}
	.st1{fill-rule:evenodd;clip-rule:evenodd;fill:#D4CDC3;}
	.st2{fill-rule:evenodd;clip-rule:evenodd;fill:#6A6A6A;}
	.st3{fill-rule:evenodd;clip-rule:evenodd;fill:#3A3834;}
</style>
<path class="st0" d="M92.5,22.4"/>
<g>
	<g>
		<g>
			<polygon class="st1" points="51.4,19 53.1,18.9 54.6,19 56,19.1 57.2,19.2 58.4,19.4 59.3,19.6 60.3,19.9 61,20.1 61.6,20.4 
				62.2,20.6 62.6,20.9 63,21.1 63.2,21.3 63.4,21.4 63.6,21.6 64.9,22.5 66.3,23.3 67.6,24 68.9,24.6 70.2,25.2 71.4,25.6 
				73.8,26.3 76,26.7 78.1,26.8 80,26.8 81.8,26.5 83.3,26.2 84.8,25.8 86,25.4 87,24.9 87.8,24.4 88.3,24.1 88.7,23.8 88.8,23.8 
				89.4,23.7 89.9,23.7 90.5,23.6 91.1,23.6 90.9,24.3 90.5,24.9 89.9,25.5 89.3,26 88.6,26.4 88,26.6 87.6,26.8 87.5,26.9 
				87.4,26.9 87.7,26.9 88.1,27 88.2,27 88.2,27.1 88.2,27.1 88.2,27.1 87.6,27.6 86.9,28.2 85.1,28.8 83.2,29.3 81,29.7 78.7,29.7 
				76.3,29.6 74,29.3 71.8,28.8 70.7,28.6 69.7,28.3 68.8,28 68,27.6 66.7,27.1 65.6,26.5 64.8,26 64.3,25.5 64,25.2 63.9,25.1 
				63.4,24.4 63,23.8 62.5,23.4 62.3,23.1 61.9,22.8 61.8,22.7 61.4,22.5 61.2,22.4 60.9,22.2 60.4,22.1 59.9,21.9 59.4,21.7 
				59,21.6 58.7,21.5 58.6,21.5 57.5,21.1 56.4,20.8 55.3,20.6 54.3,20.5 53.4,20.5 52.6,20.5 52.1,20.6 51.6,20.6 51.4,20.6 
				51.1,20.5 50.9,20.3 50.7,20 50.6,19.8 50.7,19.5 51,19.3 			"/>
			<polygon class="st1" points="50,18.8 49.5,18.4 49.2,17.8 49.1,17.4 49.1,16.9 49.1,16.3 49,15.6 48.9,14 48.6,12.3 48.3,11.4 
				47.9,10.6 47.4,9.8 46.7,9.1 46,8.5 45,8 43.9,7.6 42.6,7.4 42.5,7.4 42.2,7.4 41.7,7.4 41.1,7.4 40.2,7.5 39.2,7.7 38,8 
				36.7,8.4 36.6,8.4 36.5,8.4 36.2,8.3 35.9,8.1 35.5,7.9 35.1,7.4 34.5,6.8 33.8,5.9 33.7,5.9 33.6,5.8 33.1,5.6 32.4,5.3 
				31.7,5.2 30.8,5.2 30.3,5.3 29.9,5.5 29.5,5.8 29.1,6.3 28.8,6.8 28.6,7.6 28.6,7.7 28.6,7.9 28.5,8.1 28.3,8.5 28,8.9 27.7,9.3 
				27.3,9.8 26.7,10.2 26.6,10.3 26.5,10.6 26.5,10.8 26.5,11.1 26.6,11.1 26.7,11 27.2,10.7 28,10.3 28.8,9.9 29.7,9.3 30.6,8.7 
				31.3,8 31.9,7.4 31.9,7.4 32.4,7.4 32.6,7.4 33,7.6 33.4,7.9 33.9,8.3 33.9,8.4 34,8.6 34.1,9 34.2,9.4 34.6,9.8 34.9,10.1 
				35.5,10.4 36.2,10.4 36.2,10.4 36.5,10.5 36.9,10.5 37.4,10.5 38.2,10.4 39,10.2 40,10 41,9.6 41.1,9.6 41.2,9.6 41.6,9.5 
				42.3,9.5 43.1,9.6 43.9,9.7 44.9,10.2 45.8,10.9 46.2,11.3 46.6,11.9 46.6,12 46.6,12.3 46.7,12.6 46.8,13 46.9,13.6 47.1,14.2 
				47.4,15.6 47.7,16.9 48,18.2 48.1,18.7 48.3,19.1 48.3,19.5 48.3,19.7 48.3,19.8 48.4,19.9 48.6,20.2 48.9,20.5 49.2,20.6 
				49.4,20.6 49.5,20.6 49.7,20.5 50.1,20.2 50.3,20 50.4,19.6 50.3,19.2 			"/>
			<polygon class="st1" points="11.7,22.5 11.8,22.6 12,22.7 12.4,22.7 12.9,22.8 13.7,22.8 14.7,22.7 16,22.4 17.6,21.9 17.6,21.9 
				17.8,21.9 18,22 18.2,22.1 18.5,22.2 18.7,22.6 18.8,23.1 18.8,23.7 18.8,23.8 19,24 19.3,24.3 19.8,24.7 19.8,24.8 19.8,24.9 
				20,25.3 20.2,25.7 20.7,26.8 21.2,28.1 21.8,29.4 22.4,30.6 22.6,31.2 22.9,31.6 23.1,32 23.2,32.2 23.5,32.7 23.7,33.3 
				23.9,34.2 24.1,35 24.2,35.8 24.4,36.5 24.7,37.1 24.8,37.5 25.1,37.7 25.4,38 25.9,38.5 26.6,39.1 27.5,39.7 28.7,40.3 
				29.5,40.7 30.2,41 31.2,41.4 32.2,41.8 32.3,41.8 32.4,41.9 32.9,42.2 33.4,42.6 34.1,43.3 34.4,43.8 34.9,44.3 35.3,45 
				35.9,45.7 36.5,46.6 37.1,47.5 37.2,47.7 37.4,48.1 37.9,48.6 38.4,49.4 39.1,50 40,50.7 40.9,51.3 41.9,51.7 42,51.7 42.3,51.7 
				42.7,51.9 43.2,52.1 43.8,52.2 44.5,52.5 46.1,53 47.6,53.5 48.3,53.7 48.9,53.9 49.4,54.1 49.9,54.3 50.2,54.4 50.4,54.4 
				50.5,54.4 50.9,54.2 51.3,53.9 51.7,53.4 52.1,53 52.5,52.7 52.7,52.4 52.8,52.3 52.8,52.2 52.6,52.1 52.5,51.9 52.2,51.7 
				51.8,51.6 51.4,51.6 50.8,51.7 50.1,52.2 50,52.2 49.8,52.2 49.4,52.2 48.7,52.2 47.7,51.9 47.1,51.7 46.4,51.5 45.6,51.2 
				44.8,50.9 43.9,50.5 42.8,50 42.7,50 42.3,49.8 41.9,49.5 41.3,49 40.6,48.3 40.2,47.8 39.8,47.3 39.3,46.6 38.9,45.8 38.4,45 
				37.9,44 37.9,43.9 37.9,43.8 37.6,43.3 37,42.6 36.6,42.1 36.2,41.7 35.6,41.2 34.9,40.7 34.1,40.2 33.3,39.6 32.4,39.1 
				31.3,38.6 30,38 28.6,37.5 28.6,37.5 28.4,37.3 28,36.9 27.8,36.5 27.4,36 27,35.5 26.8,34.8 26.6,34.2 26.6,34.1 26.6,33.8 
				26.6,33.4 26.6,33 26.4,32.5 26.3,32 26,31.5 25.6,31 25.6,30.9 25.5,30.7 25.4,30.4 25.3,29.9 24.9,28.9 24.6,28.3 24.2,27.8 
				24.2,27.7 24.1,27.6 24,27.2 23.8,26.9 23.4,25.9 22.9,24.7 22.3,23.4 21.5,22.3 21.1,21.8 20.7,21.5 20.3,21.1 19.8,21 
				19.8,20.9 19.6,20.8 19.2,20.5 18.9,20.3 18.5,20.2 18.1,20.2 17.6,20.4 17.6,20.4 17.4,20.5 16.9,20.7 16.2,21.1 15.4,21.5 
				14.4,21.9 13.5,22.2 12.6,22.5 			"/>
			<polygon class="st1" points="26.5,40.2 26.4,40.3 26,40.7 25.5,41.2 24.9,41.8 24.3,42.5 23.7,43.3 23.2,44 22.9,44.7 22.8,44.8 
				22.6,45 22.5,45.2 22.2,45.6 22,46 22,46.3 22,46.8 22.3,47.2 22.8,47.7 23.3,48.3 24,49 24.8,49.7 25.5,50.4 26.4,51.1 
				27.3,51.7 28.2,52.1 29.2,52.3 30.2,52.5 31.3,52.5 32.3,52.5 33.2,52.4 34,52.3 34.6,52.2 34.9,52.2 35.1,52.1 35.2,51.8 
				35.2,51.5 35.1,51.2 34.7,50.9 34.3,50.5 34,50 33.9,50 33.8,49.9 33.7,49.9 33.5,49.8 33.1,49.9 32.9,50.1 29.1,50.1 29,50 
				28.7,49.9 28.3,49.5 27.9,49.2 26.9,48.4 26.5,48.1 26.3,47.9 26.2,47.9 26.1,47.8 25.8,47.4 25.3,46.8 25.3,46.6 25.3,46.3 
				25.3,46.3 25.4,46.2 25.8,45.7 26.3,45.1 26.9,44.3 27.6,43.5 28.3,42.7 29,42.1 29.5,41.7 29.4,41.6 29.2,41.4 29,41.2 
				28.6,40.9 28.1,40.7 27.7,40.4 27.1,40.2 			"/>
			<polygon class="st1" points="39.1,38.3 39.1,38.4 39,38.6 39,38.9 39,39.2 39,39.9 39.1,40.1 39.4,40.2 39.5,40.2 39.6,40.2 
				39.8,40.1 40.1,39.9 40.3,39.7 40.6,39.2 40.8,38.8 41,38.6 41.2,38.3 41.2,38.2 41.5,38.1 41.7,38 42,38 42.3,38 42.5,38 
				42.8,38 42.9,38 42.9,38 43,38 43.3,38 43.7,37.9 44.3,37.8 45,37.7 45.7,37.5 46.6,37.2 47.7,36.8 47.7,36.8 47.9,36.7 
				48.3,36.7 48.7,36.7 49.3,36.8 49.9,37 50.7,37.3 51.6,37.8 51.7,37.8 51.8,37.9 52.1,38 52.4,38.1 53.3,38.5 54.4,39 55.7,39.5 
				57.1,40 58.5,40.5 59.9,41 60,41 60.3,41.2 60.9,41.3 61.4,41.4 62.6,41.8 63.1,42.1 63.6,42.3 63.6,42.3 63.7,42.4 64,42.6 
				64.1,42.8 64,43.1 63.6,43.5 63.1,44 63.1,44 63,44 62.5,44.4 61.9,44.8 61.1,45.5 60.3,46.3 59.5,47.3 58.8,48.5 58.3,50 
				58.3,50 58.3,50.1 58.2,50.4 58.2,50.7 58.4,51.5 58.6,52 58.8,52.5 58.9,52.6 59,52.8 59.2,53.2 59.4,53.7 59.8,54.8 59.9,55.5 
				59.9,56.1 60.5,56.6 62.2,54.9 62.1,54.8 61.8,54.4 61.3,53.9 60.9,53.2 60.3,52.3 59.9,51.4 59.7,50.4 59.7,49.4 59.7,49.3 
				59.8,49.1 59.9,48.7 60.3,48.3 60.7,47.7 61.4,47 62.2,46.2 63.4,45.3 63.6,45.2 63.9,45.1 64.3,44.7 64.9,44.3 65.5,43.8 
				66,43.3 66.4,42.9 66.6,42.4 66.7,42.3 66.7,42.1 66.7,41.8 66.6,41.6 66.2,41.2 65.9,41 65.5,40.7 65.1,40.5 64.5,40.3 
				63.7,40.1 62.9,39.8 62.8,39.8 62.5,39.7 62.2,39.7 61.8,39.5 61.2,39.3 60.5,39.1 59.1,38.6 57.5,38 55.9,37.2 54.3,36.4 
				53.7,35.9 53.1,35.4 51,33.8 51,33.7 51,33.6 50.8,33.6 50.5,33.6 50.1,33.6 49.6,33.7 48.8,34 48.8,34 48.7,34.1 48.3,34.2 
				47.6,34.5 46.7,34.7 45,35.3 44.1,35.5 43.4,35.7 43.3,35.7 43,35.8 42.8,35.8 42.3,35.8 41.6,35.9 41.2,35.9 40.9,35.9 40.6,36 
				40.2,36.2 39.9,36.4 39.7,36.9 39.5,37.4 39.4,37.8 39.2,38.1 			"/>
			<polygon class="st1" points="63.6,37.1 63.6,37.2 63.7,37.3 63.9,37.7 64,37.9 64,38.1 63.8,38.3 63.5,38.5 63,38.6 62.7,38.5 
				62.5,38.2 62.2,38 61.9,37.5 61.8,37.4 61.8,37.3 61.8,37.2 61.7,37.1 61.5,36.9 61.5,36.5 61.5,36.1 61.6,35.6 61.9,35 
				62.3,34.3 62.3,34.2 62.3,34.2 62.4,33.9 62.5,33.6 62.7,33.2 63,32.8 63.5,32.3 64,31.8 64.1,31.7 64.2,31.5 64.5,31.3 
				64.9,30.9 65.5,30.6 66.3,30.4 67.3,30.2 68.4,30.1 68.5,30.1 68.7,30.1 69.1,30.1 69.5,30.1 70.3,30.2 70.7,30.3 71,30.4 
				71,30.5 71,30.7 70.8,30.9 70.6,31.1 70.1,31.4 69.4,31.7 68.5,32 68.4,32 68,32 67.5,32.2 67,32.5 66.3,32.8 65.6,33.3 64.9,34 
				64.2,34.7 64.2,34.8 64.1,35 64,35.2 63.9,35.5 63.6,36.3 			"/>
			<polygon class="st1" points="57.6,41.2 57.6,41.2 57.3,41 57,41 56.6,40.9 56.3,41.1 56,41.3 55.9,41.8 55.9,42.3 56,42.7 
				55.9,42.8 55.4,43.1 54.8,43.6 54.1,44.3 53.2,45.2 52.4,46.4 51.6,47.9 51,49.5 50.9,49.6 50.9,49.8 51,50 51.1,50 51.4,50 
				51.7,50 51.8,50 51.9,50 52.1,49.9 52.3,49.6 52.7,49.2 53.2,48.5 54,47.6 54.2,47.4 54.5,47 55.1,46.4 55.8,45.7 56.5,45.1 
				57.2,44.4 57.9,43.9 58.4,43.6 58.4,43.5 58.4,43.4 58.4,43 58.3,42.7 58.1,41.8 57.9,41.5 			"/>
			<polygon class="st1" points="4.1,23.4 4,23.3 3.8,23.1 3.4,22.7 3,22.3 2.8,21.8 2.7,21.2 2.8,20.6 2.9,20.3 3.2,20 3.5,19.7 
				4,19.4 5.1,18.5 5.6,18.1 6.1,17.8 6.4,17.6 6.5,17.5 6.6,17.5 6.7,17.4 7.2,17.1 7.8,16.6 8.5,16.1 9.3,15.5 10,14.9 10.5,14.3 
				10.5,14 10.6,13.8 10.7,13.5 10.8,13.3 11.1,13 11.4,12.8 12.2,12.2 13.4,11.6 14.9,10.8 16.6,10 18.6,9.1 20.8,8.1 20.9,8.1 
				20.9,8.1 21,8.4 20.9,8.5 20.9,8.8 20.9,8.9 20.8,9 20.5,9.5 20.4,9.8 20,10.1 19.6,10.4 19.1,10.6 19,10.7 18.9,11 18.9,11.2 
				19,11.3 19.3,11.6 19.6,11.7 19.8,11.8 20.1,11.9 20.7,12.2 21.4,12.4 23,13.3 23.7,13.8 24.4,14.4 24.5,14.4 24.6,14.5 
				25.1,14.8 25.8,15.3 26.4,15.7 26.5,15.7 26.6,15.8 27,16.1 27.5,16.4 27.8,16.6 27.8,16.7 27.9,16.8 27.9,17 27.9,17.2 
				27.6,17.2 27.3,17.2 26.7,17.1 25.8,16.6 25.8,16.6 25.4,16.4 24.9,16.1 24.3,15.9 23,15.1 22.3,14.8 21.7,14.4 21.6,14.4 
				21.5,14.4 21,14 20.2,13.7 19.3,13.3 18.2,13 17.1,12.9 16,13 15.4,13.2 14.9,13.4 14.9,13.5 14.7,13.8 14.5,13.9 14.3,13.9 
				13.8,14 13.3,14 13.3,14.1 12.9,14.4 12.5,14.9 12,15.5 11.3,16.1 10.7,16.6 10.1,17.2 9.5,17.7 8.9,18.2 8.2,18.7 6.7,19.8 
				6,20.3 5.4,20.7 5,21 4.7,21.3 4.5,21.7 4.3,22.1 4.1,22.7 			"/>
		</g>
		<path class="st1" d="M88.6,24l0.7-0.5c0,0,1.3-0.4,1.2,0c-0.1,0.4,0.1,0.4,0.1,0.4l-1.5,0.7L88.6,24z"/>
	</g>
	<polygon class="st1" points="13.1,16.4 13.1,17.1 13.8,16.7 	"/>
</g>
<path class="st2" d="M93.5,21.6"/>
<g>
	<polygon class="st3" points="12.1,16.2 12.1,16.9 12.8,16.5 	"/>
	<g>
		<g>
			<polygon class="st3" points="50.4,18.2 52.1,18.1 53.6,18.2 55,18.3 56.2,18.4 57.4,18.6 58.3,18.8 59.3,19.1 60,19.3 60.6,19.6 
				61.2,19.8 61.6,20.1 62,20.3 62.2,20.5 62.4,20.6 62.6,20.8 63.9,21.7 65.3,22.5 66.6,23.2 67.9,23.8 69.2,24.4 70.4,24.8 
				72.8,25.5 75,25.9 77.1,26 79,26 80.8,25.7 82.3,25.4 83.8,25 85,24.6 86,24.1 86.8,23.6 87.3,23.3 87.7,23 87.8,23 88.4,22.9 
				88.9,22.9 89.5,22.8 90.1,22.8 89.9,23.5 89.5,24.1 88.9,24.7 88.3,25.2 87.6,25.6 87,25.8 86.6,26 86.5,26.1 86.4,26.1 
				86.7,26.1 87.1,26.2 87.2,26.2 87.2,26.3 87.2,26.3 87.2,26.3 86.6,26.8 85.9,27.4 84.1,28 82.2,28.5 80,28.9 77.7,28.9 
				75.3,28.8 73,28.5 70.8,28 69.7,27.8 68.7,27.5 67.8,27.2 67,26.8 65.7,26.3 64.6,25.7 63.8,25.2 63.3,24.7 63,24.4 62.9,24.3 
				62.4,23.6 62,23 61.5,22.6 61.3,22.3 60.9,22 60.8,21.9 60.4,21.7 60.2,21.6 59.9,21.4 59.4,21.3 58.9,21.1 58.4,20.9 58,20.8 
				57.7,20.7 57.6,20.7 56.5,20.3 55.4,20 54.3,19.8 53.3,19.7 52.4,19.7 51.6,19.7 51.1,19.8 50.6,19.8 50.4,19.8 50.1,19.7 
				49.9,19.5 49.7,19.2 49.6,19 49.7,18.7 50,18.5 			"/>
			<polygon class="st3" points="49,18 48.5,17.6 48.2,17 48.1,16.6 48.1,16.1 48.1,15.5 48,14.8 47.9,13.2 47.6,11.5 47.3,10.6 
				46.9,9.8 46.4,9 45.7,8.3 45,7.7 44,7.2 42.9,6.8 41.6,6.6 41.5,6.6 41.2,6.6 40.7,6.6 40.1,6.6 39.2,6.7 38.2,6.9 37,7.2 
				35.7,7.6 35.6,7.6 35.5,7.6 35.2,7.5 34.9,7.3 34.5,7.1 34.1,6.6 33.5,6 32.8,5.1 32.7,5.1 32.6,5 32.1,4.8 31.4,4.5 30.7,4.4 
				29.8,4.4 29.3,4.5 28.9,4.7 28.5,5 28.1,5.5 27.8,6 27.6,6.8 27.6,6.9 27.6,7.1 27.5,7.3 27.3,7.7 27,8.1 26.7,8.5 26.3,9 
				25.7,9.4 25.6,9.5 25.5,9.8 25.5,10 25.5,10.3 25.6,10.3 25.7,10.2 26.2,9.9 27,9.5 27.8,9.1 28.7,8.5 29.6,7.9 30.3,7.2 
				30.9,6.6 30.9,6.6 31.4,6.6 31.6,6.6 32,6.8 32.4,7.1 32.9,7.5 32.9,7.6 33,7.8 33.1,8.2 33.2,8.6 33.6,9 33.9,9.3 34.5,9.6 
				35.2,9.6 35.2,9.6 35.5,9.7 35.9,9.7 36.4,9.7 37.2,9.6 38,9.4 39,9.2 40,8.8 40.1,8.8 40.2,8.8 40.6,8.7 41.3,8.7 42.1,8.8 
				42.9,8.9 43.9,9.4 44.8,10.1 45.2,10.5 45.6,11.1 45.6,11.2 45.6,11.5 45.7,11.8 45.8,12.2 45.9,12.8 46.1,13.4 46.4,14.8 
				46.7,16.1 47,17.4 47.1,17.9 47.3,18.3 47.3,18.7 47.3,18.9 47.3,19 47.4,19.1 47.6,19.4 47.9,19.7 48.2,19.8 48.4,19.8 
				48.5,19.8 48.7,19.7 49.1,19.4 49.3,19.2 49.4,18.8 49.3,18.4 			"/>
			<polygon class="st3" points="10.7,21.7 10.8,21.8 11,21.9 11.4,21.9 11.9,22 12.7,22 13.7,21.9 15,21.6 16.6,21.1 16.6,21.1 
				16.8,21.1 17,21.2 17.2,21.3 17.5,21.4 17.7,21.8 17.8,22.3 17.8,22.9 17.8,23 18,23.2 18.3,23.5 18.8,23.9 18.8,24 18.8,24.1 
				19,24.5 19.2,24.9 19.7,26 20.2,27.3 20.8,28.6 21.4,29.8 21.6,30.4 21.9,30.8 22.1,31.2 22.2,31.4 22.5,31.9 22.7,32.5 
				22.9,33.4 23.1,34.2 23.2,35 23.4,35.7 23.7,36.3 23.8,36.7 24.1,36.9 24.4,37.2 24.9,37.7 25.6,38.3 26.5,38.9 27.7,39.5 
				28.5,39.9 29.2,40.2 30.2,40.6 31.2,41 31.3,41 31.4,41.1 31.9,41.4 32.4,41.8 33.1,42.5 33.4,43 33.9,43.5 34.3,44.2 34.9,44.9 
				35.5,45.8 36.1,46.7 36.2,46.9 36.4,47.3 36.9,47.8 37.4,48.6 38.1,49.2 39,49.9 39.9,50.5 40.9,50.9 41,50.9 41.3,50.9 
				41.7,51.1 42.2,51.3 42.8,51.4 43.5,51.7 45.1,52.2 46.6,52.7 47.3,52.9 47.9,53.1 48.4,53.3 48.9,53.5 49.2,53.6 49.4,53.6 
				49.5,53.6 49.9,53.4 50.3,53.1 50.7,52.6 51.1,52.2 51.5,51.9 51.7,51.6 51.8,51.5 51.8,51.4 51.6,51.3 51.5,51.1 51.2,50.9 
				50.8,50.8 50.4,50.8 49.8,50.9 49.1,51.4 49,51.4 48.8,51.4 48.4,51.4 47.7,51.4 46.7,51.1 46.1,50.9 45.4,50.7 44.6,50.4 
				43.8,50.1 42.9,49.7 41.8,49.2 41.7,49.2 41.3,49 40.9,48.7 40.3,48.2 39.6,47.5 39.2,47 38.8,46.5 38.3,45.8 37.9,45 37.4,44.2 
				36.9,43.2 36.9,43.1 36.9,43 36.6,42.5 36,41.8 35.6,41.3 35.2,40.9 34.6,40.4 33.9,39.9 33.1,39.4 32.3,38.8 31.4,38.3 
				30.3,37.8 29,37.2 27.6,36.7 27.6,36.7 27.4,36.5 27,36.1 26.8,35.7 26.4,35.2 26,34.7 25.8,34 25.6,33.4 25.6,33.3 25.6,33 
				25.6,32.6 25.6,32.2 25.4,31.7 25.3,31.2 25,30.7 24.6,30.2 24.6,30.1 24.5,29.9 24.4,29.6 24.3,29.1 23.9,28.1 23.6,27.5 
				23.2,27 23.2,26.9 23.1,26.8 23,26.4 22.8,26.1 22.4,25.1 21.9,23.9 21.3,22.6 20.5,21.5 20.1,21 19.7,20.7 19.3,20.3 18.8,20.2 
				18.8,20.1 18.6,20 18.2,19.7 17.9,19.5 17.5,19.4 17.1,19.4 16.6,19.6 16.6,19.6 16.4,19.7 15.9,19.9 15.2,20.3 14.4,20.7 
				13.4,21.1 12.5,21.4 11.6,21.7 			"/>
			<polygon class="st3" points="25.5,39.4 25.4,39.5 25,39.9 24.5,40.4 23.9,41 23.3,41.7 22.7,42.5 22.2,43.2 21.9,43.9 21.8,44 
				21.6,44.2 21.5,44.4 21.2,44.8 21,45.2 21,45.5 21,46 21.3,46.4 21.8,46.9 22.3,47.5 23,48.2 23.8,48.9 24.5,49.6 25.4,50.3 
				26.3,50.9 27.2,51.3 28.2,51.5 29.2,51.7 30.3,51.7 31.3,51.7 32.2,51.6 33,51.5 33.6,51.4 33.9,51.4 34.1,51.3 34.2,51 
				34.2,50.7 34.1,50.4 33.7,50.1 33.3,49.7 33,49.2 32.9,49.2 32.8,49.1 32.7,49.1 32.5,49 32.1,49.1 31.9,49.3 28.1,49.3 28,49.2 
				27.7,49.1 27.3,48.7 26.9,48.4 25.9,47.6 25.5,47.3 25.3,47.1 25.2,47.1 25.1,47 24.8,46.6 24.3,46 24.3,45.8 24.3,45.5 
				24.3,45.5 24.4,45.4 24.8,44.9 25.3,44.3 25.9,43.5 26.6,42.7 27.3,41.9 28,41.3 28.5,40.9 28.4,40.8 28.2,40.6 28,40.4 
				27.6,40.1 27.1,39.9 26.7,39.6 26.1,39.4 			"/>
			<polygon class="st3" points="38.1,37.5 38.1,37.6 38,37.8 38,38.1 38,38.4 38,39.1 38.1,39.3 38.4,39.4 38.5,39.4 38.6,39.4 
				38.8,39.3 39.1,39.1 39.3,38.9 39.6,38.4 39.8,38 40,37.8 40.2,37.5 40.2,37.4 40.5,37.3 40.7,37.2 41,37.2 41.3,37.2 41.5,37.2 
				41.8,37.2 41.9,37.2 41.9,37.2 42,37.2 42.3,37.2 42.7,37.1 43.3,37 44,36.9 44.7,36.7 45.6,36.4 46.7,36 46.7,36 46.9,35.9 
				47.3,35.9 47.7,35.9 48.3,36 48.9,36.2 49.7,36.5 50.6,37 50.7,37 50.8,37.1 51.1,37.2 51.4,37.3 52.3,37.7 53.4,38.2 54.7,38.7 
				56.1,39.2 57.5,39.7 58.9,40.2 59,40.2 59.3,40.4 59.9,40.5 60.4,40.6 61.6,41 62.1,41.3 62.6,41.5 62.6,41.5 62.7,41.6 63,41.8 
				63.1,42 63,42.3 62.6,42.7 62.1,43.2 62.1,43.2 62,43.2 61.5,43.6 60.9,44 60.1,44.7 59.3,45.5 58.5,46.5 57.8,47.7 57.3,49.2 
				57.3,49.2 57.3,49.3 57.2,49.6 57.2,49.9 57.4,50.7 57.6,51.2 57.8,51.7 57.9,51.8 58,52 58.2,52.4 58.4,52.9 58.8,54 58.9,54.7 
				58.9,55.3 59.5,55.8 61.2,54.1 61.1,54 60.8,53.6 60.3,53.1 59.9,52.4 59.3,51.5 58.9,50.6 58.7,49.6 58.7,48.6 58.7,48.5 
				58.8,48.3 58.9,47.9 59.3,47.5 59.7,46.9 60.4,46.2 61.2,45.4 62.4,44.5 62.6,44.4 62.9,44.3 63.3,43.9 63.9,43.5 64.5,43 
				65,42.5 65.4,42.1 65.6,41.6 65.7,41.5 65.7,41.3 65.7,41 65.6,40.8 65.2,40.4 64.9,40.2 64.5,39.9 64.1,39.7 63.5,39.5 
				62.7,39.3 61.9,39 61.8,39 61.5,38.9 61.2,38.9 60.8,38.7 60.2,38.5 59.5,38.3 58.1,37.8 56.5,37.2 54.9,36.4 53.3,35.6 
				52.7,35.1 52.1,34.6 50,33 50,32.9 50,32.8 49.8,32.8 49.5,32.8 49.1,32.8 48.6,32.9 47.8,33.2 47.8,33.2 47.7,33.3 47.3,33.4 
				46.6,33.7 45.7,33.9 44,34.5 43.1,34.7 42.4,34.9 42.3,34.9 42,35 41.8,35 41.3,35 40.6,35.1 40.2,35.1 39.9,35.1 39.6,35.2 
				39.2,35.4 38.9,35.6 38.7,36.1 38.5,36.6 38.4,37 38.2,37.3 			"/>
			<polygon class="st3" points="62.6,36.3 62.6,36.4 62.7,36.5 62.9,36.9 63,37.1 63,37.3 62.8,37.5 62.5,37.7 62,37.8 61.7,37.7 
				61.5,37.4 61.2,37.2 60.9,36.7 60.8,36.6 60.8,36.5 60.8,36.4 60.7,36.3 60.5,36.1 60.5,35.7 60.5,35.3 60.6,34.8 60.9,34.2 
				61.3,33.5 61.3,33.4 61.3,33.4 61.4,33.1 61.5,32.8 61.7,32.4 62,32 62.5,31.5 63,31 63.1,30.9 63.2,30.7 63.5,30.5 63.9,30.1 
				64.5,29.8 65.3,29.6 66.3,29.4 67.4,29.3 67.5,29.3 67.7,29.3 68.1,29.3 68.5,29.3 69.3,29.4 69.7,29.5 70,29.6 70,29.7 70,29.9 
				69.8,30.1 69.6,30.3 69.1,30.6 68.4,30.9 67.5,31.2 67.4,31.2 67,31.2 66.5,31.4 66,31.7 65.3,32 64.6,32.5 63.9,33.2 63.2,33.9 
				63.2,34 63.1,34.2 63,34.4 62.9,34.7 62.6,35.5 			"/>
			<polygon class="st3" points="56.6,40.4 56.6,40.4 56.3,40.2 56,40.2 55.6,40.1 55.3,40.3 55,40.5 54.9,41 54.9,41.5 55,41.9 
				54.9,42 54.4,42.3 53.8,42.8 53.1,43.5 52.2,44.4 51.4,45.6 50.6,47.1 50,48.7 49.9,48.8 49.9,49 50,49.2 50.1,49.2 50.4,49.2 
				50.7,49.2 50.8,49.2 50.9,49.2 51.1,49.1 51.3,48.8 51.7,48.4 52.2,47.7 53,46.8 53.2,46.6 53.5,46.2 54.1,45.6 54.8,44.9 
				55.5,44.3 56.2,43.6 56.9,43.1 57.4,42.8 57.4,42.7 57.4,42.6 57.4,42.2 57.3,41.9 57.1,41 56.9,40.7 			"/>
			<polygon class="st3" points="3.1,22.6 3,22.5 2.8,22.3 2.4,21.9 2,21.5 1.8,21 1.7,20.4 1.8,19.8 1.9,19.5 2.2,19.2 2.5,18.9 
				3,18.6 4.1,17.7 4.6,17.3 5.1,17 5.4,16.8 5.5,16.7 5.6,16.7 5.7,16.6 6.2,16.3 6.8,15.8 7.5,15.3 8.3,14.7 9,14.1 9.5,13.5 
				9.5,13.2 9.6,13 9.7,12.7 9.8,12.5 10.1,12.2 10.4,12 11.2,11.4 12.4,10.8 13.9,10 15.6,9.2 17.6,8.3 19.8,7.3 19.9,7.3 
				19.9,7.3 20,7.6 19.9,7.7 19.9,8 19.9,8.1 19.8,8.2 19.5,8.7 19.4,9 19,9.3 18.6,9.6 18.1,9.8 18,9.9 17.9,10.2 17.9,10.4 
				18,10.5 18.3,10.8 18.6,10.9 18.8,11 19.1,11.1 19.7,11.4 20.4,11.6 22,12.5 22.7,13 23.4,13.6 23.5,13.6 23.6,13.7 24.1,14 
				24.8,14.5 25.4,14.9 25.5,14.9 25.6,15 26,15.3 26.5,15.6 26.8,15.8 26.8,15.9 26.9,16 26.9,16.2 26.9,16.4 26.6,16.4 26.3,16.4 
				25.7,16.3 24.8,15.8 24.8,15.8 24.4,15.6 23.9,15.3 23.3,15.1 22,14.3 21.3,14 20.7,13.6 20.6,13.6 20.5,13.6 20,13.2 19.2,12.9 
				18.3,12.5 17.2,12.2 16.1,12.1 15,12.2 14.4,12.4 13.9,12.6 13.9,12.7 13.7,13 13.5,13.1 13.3,13.1 12.8,13.2 12.3,13.2 
				12.3,13.3 11.9,13.6 11.5,14.1 11,14.7 10.3,15.3 9.7,15.8 9.1,16.4 8.5,16.9 7.9,17.4 7.2,17.9 5.7,19 5,19.5 4.4,19.9 4,20.2 
				3.7,20.5 3.5,20.9 3.3,21.3 3.1,21.9 			"/>
		</g>
		<path class="st3" d="M87.6,23.2l0.7-0.5c0,0,1.3-0.4,1.2,0c-0.1,0.4,0.1,0.4,0.1,0.4l-1.5,0.7L87.6,23.2z"/>
	</g>
</g>
</svg>
